<mxfile host="app.diagrams.net" modified="2022-02-17T11:06:41.124Z" agent="5.0 (Macintosh; Intel Mac OS X 10_15_6) AppleWebKit/537.36 (KHTML, like Gecko) Chrome/78.0.3904.108 Safari/537.36" etag="u2cSDmeGpsLp5xSFp_GY" version="16.5.6" type="github">
  <diagram id="2Vl-29mJTYHd3rG5gsJs" name="Page-1">
    <mxGraphModel dx="946" dy="504" grid="1" gridSize="10" guides="1" tooltips="1" connect="1" arrows="1" fold="1" page="1" pageScale="1" pageWidth="827" pageHeight="1169" math="0" shadow="0">
      <root>
        <mxCell id="0" />
        <mxCell id="1" parent="0" />
        <mxCell id="tsZCZAis8NTeMSvLRY_F-6" style="edgeStyle=orthogonalEdgeStyle;rounded=0;orthogonalLoop=1;jettySize=auto;html=1;exitX=1;exitY=0.5;exitDx=0;exitDy=0;exitPerimeter=0;entryX=0;entryY=0.5;entryDx=0;entryDy=0;fontSize=22;" edge="1" parent="1" target="tsZCZAis8NTeMSvLRY_F-4">
          <mxGeometry relative="1" as="geometry">
            <mxPoint x="200" y="260" as="sourcePoint" />
          </mxGeometry>
        </mxCell>
        <mxCell id="tsZCZAis8NTeMSvLRY_F-7" style="edgeStyle=orthogonalEdgeStyle;rounded=0;orthogonalLoop=1;jettySize=auto;html=1;exitX=1;exitY=0.5;exitDx=0;exitDy=0;exitPerimeter=0;entryX=0;entryY=0.5;entryDx=0;entryDy=0;fontSize=22;" edge="1" parent="1" target="tsZCZAis8NTeMSvLRY_F-2">
          <mxGeometry relative="1" as="geometry">
            <mxPoint x="200" y="260" as="sourcePoint" />
          </mxGeometry>
        </mxCell>
        <mxCell id="tsZCZAis8NTeMSvLRY_F-26" value="" style="edgeStyle=orthogonalEdgeStyle;rounded=0;orthogonalLoop=1;jettySize=auto;html=1;fontSize=22;" edge="1" parent="1" source="tsZCZAis8NTeMSvLRY_F-2" target="tsZCZAis8NTeMSvLRY_F-25">
          <mxGeometry relative="1" as="geometry">
            <Array as="points">
              <mxPoint x="430" y="440" />
              <mxPoint x="430" y="330" />
            </Array>
          </mxGeometry>
        </mxCell>
        <mxCell id="tsZCZAis8NTeMSvLRY_F-28" value="" style="edgeStyle=orthogonalEdgeStyle;rounded=0;orthogonalLoop=1;jettySize=auto;html=1;fontSize=22;" edge="1" parent="1" source="tsZCZAis8NTeMSvLRY_F-2" target="tsZCZAis8NTeMSvLRY_F-27">
          <mxGeometry relative="1" as="geometry" />
        </mxCell>
        <mxCell id="tsZCZAis8NTeMSvLRY_F-30" value="" style="edgeStyle=orthogonalEdgeStyle;rounded=0;orthogonalLoop=1;jettySize=auto;html=1;fontSize=22;" edge="1" parent="1" source="tsZCZAis8NTeMSvLRY_F-2" target="tsZCZAis8NTeMSvLRY_F-29">
          <mxGeometry relative="1" as="geometry">
            <Array as="points">
              <mxPoint x="430" y="440" />
              <mxPoint x="430" y="490" />
            </Array>
          </mxGeometry>
        </mxCell>
        <mxCell id="tsZCZAis8NTeMSvLRY_F-32" style="edgeStyle=orthogonalEdgeStyle;rounded=0;orthogonalLoop=1;jettySize=auto;html=1;exitX=1;exitY=0.5;exitDx=0;exitDy=0;fontSize=22;entryX=0;entryY=0.5;entryDx=0;entryDy=0;" edge="1" parent="1" source="tsZCZAis8NTeMSvLRY_F-2" target="tsZCZAis8NTeMSvLRY_F-33">
          <mxGeometry relative="1" as="geometry">
            <mxPoint x="470" y="570" as="targetPoint" />
          </mxGeometry>
        </mxCell>
        <mxCell id="tsZCZAis8NTeMSvLRY_F-2" value="精品营管理" style="rounded=1;whiteSpace=wrap;html=1;fillColor=#ffe6cc;strokeColor=#d79b00;strokeWidth=2;gradientColor=none;shadow=1;sketch=1;fontStyle=1;fontSize=22;" vertex="1" parent="1">
          <mxGeometry x="270" y="410" width="120" height="60" as="geometry" />
        </mxCell>
        <mxCell id="tsZCZAis8NTeMSvLRY_F-14" value="" style="edgeStyle=orthogonalEdgeStyle;rounded=0;orthogonalLoop=1;jettySize=auto;html=1;fontSize=22;" edge="1" parent="1" source="tsZCZAis8NTeMSvLRY_F-4" target="tsZCZAis8NTeMSvLRY_F-13">
          <mxGeometry relative="1" as="geometry" />
        </mxCell>
        <mxCell id="tsZCZAis8NTeMSvLRY_F-4" value="app打卡管理" style="rounded=1;whiteSpace=wrap;html=1;fontSize=22;fillColor=#ffe6cc;strokeColor=#d79b00;strokeWidth=2;gradientColor=none;shadow=1;sketch=1;fontStyle=1;" vertex="1" parent="1">
          <mxGeometry x="270" y="140" width="120" height="60" as="geometry" />
        </mxCell>
        <mxCell id="tsZCZAis8NTeMSvLRY_F-12" value="发现页&lt;br&gt;管理" style="strokeWidth=2;html=1;shape=mxgraph.flowchart.start_2;whiteSpace=wrap;shadow=1;sketch=1;fontSize=22;fillColor=#d5e8d4;strokeColor=#82b366;" vertex="1" parent="1">
          <mxGeometry x="100" y="210" width="100" height="100" as="geometry" />
        </mxCell>
        <mxCell id="tsZCZAis8NTeMSvLRY_F-16" value="" style="edgeStyle=orthogonalEdgeStyle;rounded=0;orthogonalLoop=1;jettySize=auto;html=1;fontSize=22;" edge="1" parent="1" source="tsZCZAis8NTeMSvLRY_F-13" target="tsZCZAis8NTeMSvLRY_F-15">
          <mxGeometry relative="1" as="geometry" />
        </mxCell>
        <mxCell id="tsZCZAis8NTeMSvLRY_F-18" value="" style="edgeStyle=orthogonalEdgeStyle;rounded=0;orthogonalLoop=1;jettySize=auto;html=1;fontSize=22;" edge="1" parent="1" source="tsZCZAis8NTeMSvLRY_F-13" target="tsZCZAis8NTeMSvLRY_F-17">
          <mxGeometry relative="1" as="geometry">
            <Array as="points">
              <mxPoint x="630" y="170" />
              <mxPoint x="630" y="240" />
            </Array>
          </mxGeometry>
        </mxCell>
        <mxCell id="tsZCZAis8NTeMSvLRY_F-13" value="打卡列表" style="ellipse;whiteSpace=wrap;html=1;fontSize=22;fillColor=#f8cecc;strokeColor=#b85450;rounded=1;strokeWidth=2;shadow=1;sketch=1;fontStyle=1;" vertex="1" parent="1">
          <mxGeometry x="470" y="140" width="120" height="60" as="geometry" />
        </mxCell>
        <mxCell id="tsZCZAis8NTeMSvLRY_F-15" value="列表数据" style="whiteSpace=wrap;html=1;fontSize=22;fillColor=#e1d5e7;strokeColor=#9673a6;rounded=1;strokeWidth=2;shadow=1;sketch=1;fontStyle=1;" vertex="1" parent="1">
          <mxGeometry x="670" y="90" width="120" height="60" as="geometry" />
        </mxCell>
        <mxCell id="tsZCZAis8NTeMSvLRY_F-17" value="累计打卡数据" style="whiteSpace=wrap;html=1;fontSize=22;fillColor=#e1d5e7;strokeColor=#9673a6;rounded=1;strokeWidth=2;shadow=1;sketch=1;fontStyle=1;" vertex="1" parent="1">
          <mxGeometry x="670" y="200" width="120" height="60" as="geometry" />
        </mxCell>
        <mxCell id="tsZCZAis8NTeMSvLRY_F-25" value="精品营列表" style="ellipse;whiteSpace=wrap;html=1;fontSize=22;fillColor=#f8cecc;strokeColor=#b85450;rounded=1;strokeWidth=2;shadow=1;sketch=1;fontStyle=1;" vertex="1" parent="1">
          <mxGeometry x="470" y="290" width="120" height="60" as="geometry" />
        </mxCell>
        <mxCell id="tsZCZAis8NTeMSvLRY_F-38" style="edgeStyle=orthogonalEdgeStyle;rounded=0;orthogonalLoop=1;jettySize=auto;html=1;exitX=1;exitY=0.5;exitDx=0;exitDy=0;fontSize=22;" edge="1" parent="1" source="tsZCZAis8NTeMSvLRY_F-27" target="tsZCZAis8NTeMSvLRY_F-35">
          <mxGeometry relative="1" as="geometry" />
        </mxCell>
        <mxCell id="tsZCZAis8NTeMSvLRY_F-27" value="新建/编辑&lt;br&gt;精品营" style="ellipse;whiteSpace=wrap;html=1;fontSize=22;fillColor=#f8cecc;strokeColor=#b85450;rounded=1;strokeWidth=2;shadow=1;sketch=1;fontStyle=1;" vertex="1" parent="1">
          <mxGeometry x="470" y="370" width="120" height="60" as="geometry" />
        </mxCell>
        <mxCell id="tsZCZAis8NTeMSvLRY_F-29" value="启用/停用" style="ellipse;whiteSpace=wrap;html=1;fontSize=22;fillColor=#f8cecc;strokeColor=#b85450;rounded=1;strokeWidth=2;shadow=1;sketch=1;fontStyle=1;" vertex="1" parent="1">
          <mxGeometry x="470" y="460" width="120" height="60" as="geometry" />
        </mxCell>
        <mxCell id="tsZCZAis8NTeMSvLRY_F-33" value="&lt;span&gt;精品营管理&lt;/span&gt;" style="rounded=1;whiteSpace=wrap;html=1;fontSize=22;fillColor=#ffe6cc;strokeColor=#d79b00;strokeWidth=2;gradientColor=none;shadow=1;sketch=1;fontStyle=1;" vertex="1" parent="1">
          <mxGeometry x="470" y="550" width="120" height="60" as="geometry" />
        </mxCell>
        <mxCell id="tsZCZAis8NTeMSvLRY_F-39" style="edgeStyle=orthogonalEdgeStyle;rounded=0;orthogonalLoop=1;jettySize=auto;html=1;exitX=1;exitY=0.5;exitDx=0;exitDy=0;entryX=0;entryY=0.5;entryDx=0;entryDy=0;fontSize=22;" edge="1" parent="1" source="tsZCZAis8NTeMSvLRY_F-35" target="tsZCZAis8NTeMSvLRY_F-37">
          <mxGeometry relative="1" as="geometry" />
        </mxCell>
        <mxCell id="tsZCZAis8NTeMSvLRY_F-40" style="edgeStyle=orthogonalEdgeStyle;rounded=0;orthogonalLoop=1;jettySize=auto;html=1;exitX=1;exitY=0.5;exitDx=0;exitDy=0;entryX=0;entryY=0.5;entryDx=0;entryDy=0;fontSize=22;" edge="1" parent="1" source="tsZCZAis8NTeMSvLRY_F-35" target="tsZCZAis8NTeMSvLRY_F-36">
          <mxGeometry relative="1" as="geometry" />
        </mxCell>
        <mxCell id="tsZCZAis8NTeMSvLRY_F-35" value="精品营ID&lt;br&gt;精品营名称&lt;br&gt;排序值&lt;br&gt;精品营难度&lt;br&gt;封面图" style="whiteSpace=wrap;html=1;fontSize=22;fillColor=#e1d5e7;strokeColor=#9673a6;rounded=1;strokeWidth=2;shadow=1;sketch=1;fontStyle=1;" vertex="1" parent="1">
          <mxGeometry x="640" y="335" width="120" height="130" as="geometry" />
        </mxCell>
        <mxCell id="tsZCZAis8NTeMSvLRY_F-36" value="图片上传" style="ellipse;whiteSpace=wrap;html=1;fontSize=22;fillColor=#f8cecc;strokeColor=#b85450;rounded=1;strokeWidth=2;shadow=1;sketch=1;fontStyle=1;" vertex="1" parent="1">
          <mxGeometry x="810" y="410" width="120" height="60" as="geometry" />
        </mxCell>
        <mxCell id="tsZCZAis8NTeMSvLRY_F-37" value="难度枚举" style="whiteSpace=wrap;html=1;fontSize=22;fillColor=#e1d5e7;strokeColor=#9673a6;rounded=1;strokeWidth=2;shadow=1;sketch=1;fontStyle=1;" vertex="1" parent="1">
          <mxGeometry x="810" y="330" width="120" height="60" as="geometry" />
        </mxCell>
        <mxCell id="tsZCZAis8NTeMSvLRY_F-41" value="精品营核心目标" style="whiteSpace=wrap;html=1;fontSize=22;fillColor=#e1d5e7;strokeColor=#9673a6;rounded=1;strokeWidth=2;shadow=1;sketch=1;fontStyle=1;" vertex="1" parent="1">
          <mxGeometry x="630" y="630" width="160" height="70" as="geometry" />
        </mxCell>
        <mxCell id="tsZCZAis8NTeMSvLRY_F-59" style="edgeStyle=orthogonalEdgeStyle;rounded=0;orthogonalLoop=1;jettySize=auto;html=1;exitX=1;exitY=0.5;exitDx=0;exitDy=0;entryX=0;entryY=0.5;entryDx=0;entryDy=0;fontSize=22;fontColor=#FF3333;" edge="1" parent="1" source="tsZCZAis8NTeMSvLRY_F-42" target="tsZCZAis8NTeMSvLRY_F-55">
          <mxGeometry relative="1" as="geometry" />
        </mxCell>
        <mxCell id="tsZCZAis8NTeMSvLRY_F-60" style="edgeStyle=orthogonalEdgeStyle;rounded=0;orthogonalLoop=1;jettySize=auto;html=1;exitX=1;exitY=0.5;exitDx=0;exitDy=0;entryX=0;entryY=0.5;entryDx=0;entryDy=0;fontSize=22;fontColor=#FF3333;" edge="1" parent="1" source="tsZCZAis8NTeMSvLRY_F-42" target="tsZCZAis8NTeMSvLRY_F-58">
          <mxGeometry relative="1" as="geometry" />
        </mxCell>
        <mxCell id="tsZCZAis8NTeMSvLRY_F-42" value="精品营训练模式" style="whiteSpace=wrap;html=1;fontSize=22;fillColor=#e1d5e7;strokeColor=#9673a6;rounded=1;strokeWidth=2;shadow=1;sketch=1;fontStyle=1;" vertex="1" parent="1">
          <mxGeometry x="630" y="855" width="160" height="70" as="geometry" />
        </mxCell>
        <mxCell id="tsZCZAis8NTeMSvLRY_F-62" style="edgeStyle=orthogonalEdgeStyle;rounded=0;orthogonalLoop=1;jettySize=auto;html=1;exitX=1;exitY=0.5;exitDx=0;exitDy=0;entryX=0;entryY=0.5;entryDx=0;entryDy=0;fontSize=22;fontColor=#FF3333;" edge="1" parent="1" source="tsZCZAis8NTeMSvLRY_F-43" target="tsZCZAis8NTeMSvLRY_F-61">
          <mxGeometry relative="1" as="geometry" />
        </mxCell>
        <mxCell id="tsZCZAis8NTeMSvLRY_F-43" value="精品营奖品展示" style="whiteSpace=wrap;html=1;fontSize=22;fillColor=#e1d5e7;strokeColor=#9673a6;rounded=1;strokeWidth=2;shadow=1;sketch=1;fontStyle=1;" vertex="1" parent="1">
          <mxGeometry x="630" y="1140" width="160" height="70" as="geometry" />
        </mxCell>
        <mxCell id="tsZCZAis8NTeMSvLRY_F-49" value="" style="edgeStyle=orthogonalEdgeStyle;rounded=0;orthogonalLoop=1;jettySize=auto;html=1;fontSize=22;" edge="1" parent="1" source="tsZCZAis8NTeMSvLRY_F-45" target="tsZCZAis8NTeMSvLRY_F-46">
          <mxGeometry relative="1" as="geometry" />
        </mxCell>
        <mxCell id="tsZCZAis8NTeMSvLRY_F-45" value="精品营标签" style="whiteSpace=wrap;html=1;fontSize=22;fillColor=#e1d5e7;strokeColor=#9673a6;rounded=1;strokeWidth=2;shadow=1;sketch=1;fontStyle=1;" vertex="1" parent="1">
          <mxGeometry x="630" y="490" width="160" height="70" as="geometry" />
        </mxCell>
        <mxCell id="tsZCZAis8NTeMSvLRY_F-46" value="营地难度标签" style="whiteSpace=wrap;html=1;fontSize=22;fillColor=#e1d5e7;strokeColor=#9673a6;rounded=1;strokeWidth=2;shadow=1;sketch=1;fontStyle=1;" vertex="1" parent="1">
          <mxGeometry x="840" y="490" width="160" height="70" as="geometry" />
        </mxCell>
        <mxCell id="tsZCZAis8NTeMSvLRY_F-47" value="开营时间标签" style="whiteSpace=wrap;html=1;fontSize=22;fillColor=#e1d5e7;strokeColor=#9673a6;rounded=1;strokeWidth=2;shadow=1;sketch=1;fontStyle=1;" vertex="1" parent="1">
          <mxGeometry x="1000" y="490" width="160" height="70" as="geometry" />
        </mxCell>
        <mxCell id="tsZCZAis8NTeMSvLRY_F-48" value="营地类型标签" style="whiteSpace=wrap;html=1;fontSize=22;fillColor=#e1d5e7;strokeColor=#9673a6;rounded=1;strokeWidth=2;shadow=1;sketch=1;fontStyle=1;" vertex="1" parent="1">
          <mxGeometry x="1161" y="490" width="160" height="70" as="geometry" />
        </mxCell>
        <mxCell id="tsZCZAis8NTeMSvLRY_F-50" value="&lt;font color=&quot;#ff3333&quot;&gt;难度后台配置，&lt;br&gt;其它的初始化进去？&lt;/font&gt;" style="text;html=1;strokeColor=none;fillColor=none;align=center;verticalAlign=middle;whiteSpace=wrap;rounded=0;shadow=1;sketch=1;fontSize=22;" vertex="1" parent="1">
          <mxGeometry x="940" y="480" width="220" height="10" as="geometry" />
        </mxCell>
        <mxCell id="tsZCZAis8NTeMSvLRY_F-51" style="edgeStyle=orthogonalEdgeStyle;rounded=0;orthogonalLoop=1;jettySize=auto;html=1;exitX=0.5;exitY=1;exitDx=0;exitDy=0;fontSize=22;fontColor=#FF3333;" edge="1" parent="1" source="tsZCZAis8NTeMSvLRY_F-50" target="tsZCZAis8NTeMSvLRY_F-50">
          <mxGeometry relative="1" as="geometry" />
        </mxCell>
        <mxCell id="tsZCZAis8NTeMSvLRY_F-52" value="&lt;font color=&quot;#ff3333&quot;&gt;内容什么样的？&lt;/font&gt;" style="text;html=1;strokeColor=none;fillColor=none;align=center;verticalAlign=middle;whiteSpace=wrap;rounded=0;shadow=1;sketch=1;fontSize=22;" vertex="1" parent="1">
          <mxGeometry x="650" y="630" width="200" height="10" as="geometry" />
        </mxCell>
        <mxCell id="tsZCZAis8NTeMSvLRY_F-53" value="默认两个标签" style="whiteSpace=wrap;html=1;fontSize=22;fillColor=#e1d5e7;strokeColor=#9673a6;rounded=1;strokeWidth=2;shadow=1;sketch=1;fontStyle=1;" vertex="1" parent="1">
          <mxGeometry x="1100" y="740" width="160" height="70" as="geometry" />
        </mxCell>
        <mxCell id="tsZCZAis8NTeMSvLRY_F-54" value="配置两个标签" style="whiteSpace=wrap;html=1;fontSize=22;fillColor=#e1d5e7;strokeColor=#9673a6;rounded=1;strokeWidth=2;shadow=1;sketch=1;fontStyle=1;" vertex="1" parent="1">
          <mxGeometry x="1100" y="840" width="160" height="70" as="geometry" />
        </mxCell>
        <mxCell id="tsZCZAis8NTeMSvLRY_F-56" style="edgeStyle=orthogonalEdgeStyle;rounded=0;orthogonalLoop=1;jettySize=auto;html=1;exitX=1;exitY=0.5;exitDx=0;exitDy=0;fontSize=22;fontColor=#FF3333;" edge="1" parent="1" source="tsZCZAis8NTeMSvLRY_F-55" target="tsZCZAis8NTeMSvLRY_F-53">
          <mxGeometry relative="1" as="geometry" />
        </mxCell>
        <mxCell id="tsZCZAis8NTeMSvLRY_F-57" style="edgeStyle=orthogonalEdgeStyle;rounded=0;orthogonalLoop=1;jettySize=auto;html=1;exitX=1;exitY=0.5;exitDx=0;exitDy=0;entryX=0;entryY=0.5;entryDx=0;entryDy=0;fontSize=22;fontColor=#FF3333;" edge="1" parent="1" source="tsZCZAis8NTeMSvLRY_F-55" target="tsZCZAis8NTeMSvLRY_F-54">
          <mxGeometry relative="1" as="geometry" />
        </mxCell>
        <mxCell id="tsZCZAis8NTeMSvLRY_F-55" value="标签&lt;br&gt;配置&amp;gt;默认&lt;br&gt;共两条" style="whiteSpace=wrap;html=1;fontSize=22;fillColor=#e1d5e7;strokeColor=#9673a6;rounded=1;strokeWidth=2;shadow=1;sketch=1;fontStyle=1;" vertex="1" parent="1">
          <mxGeometry x="860" y="785" width="160" height="70" as="geometry" />
        </mxCell>
        <mxCell id="tsZCZAis8NTeMSvLRY_F-58" value="N天训练安排" style="whiteSpace=wrap;html=1;fontSize=22;fillColor=#e1d5e7;strokeColor=#9673a6;rounded=1;strokeWidth=2;shadow=1;sketch=1;fontStyle=1;" vertex="1" parent="1">
          <mxGeometry x="860" y="925" width="160" height="70" as="geometry" />
        </mxCell>
        <mxCell id="tsZCZAis8NTeMSvLRY_F-61" value="图片&lt;br&gt;（最多三个）" style="whiteSpace=wrap;html=1;fontSize=22;fillColor=#e1d5e7;strokeColor=#9673a6;rounded=1;strokeWidth=2;shadow=1;sketch=1;fontStyle=1;" vertex="1" parent="1">
          <mxGeometry x="860" y="1140" width="160" height="70" as="geometry" />
        </mxCell>
        <mxCell id="tsZCZAis8NTeMSvLRY_F-63" value="&lt;font color=&quot;#ff3333&quot;&gt;只展示图片？&lt;br&gt;奖品配置属性有哪些？&lt;br&gt;&lt;/font&gt;" style="text;html=1;strokeColor=none;fillColor=none;align=center;verticalAlign=middle;whiteSpace=wrap;rounded=0;shadow=1;sketch=1;fontSize=22;" vertex="1" parent="1">
          <mxGeometry x="640" y="1120" width="240" height="10" as="geometry" />
        </mxCell>
        <mxCell id="tsZCZAis8NTeMSvLRY_F-72" style="edgeStyle=orthogonalEdgeStyle;rounded=0;orthogonalLoop=1;jettySize=auto;html=1;exitX=1;exitY=0.5;exitDx=0;exitDy=0;entryX=0;entryY=0.5;entryDx=0;entryDy=0;fontSize=22;fontColor=#FF3333;" edge="1" parent="1" source="tsZCZAis8NTeMSvLRY_F-68" target="tsZCZAis8NTeMSvLRY_F-69">
          <mxGeometry relative="1" as="geometry" />
        </mxCell>
        <mxCell id="tsZCZAis8NTeMSvLRY_F-73" style="edgeStyle=orthogonalEdgeStyle;rounded=0;orthogonalLoop=1;jettySize=auto;html=1;exitX=1;exitY=0.5;exitDx=0;exitDy=0;fontSize=22;fontColor=#FF3333;" edge="1" parent="1" source="tsZCZAis8NTeMSvLRY_F-68" target="tsZCZAis8NTeMSvLRY_F-70">
          <mxGeometry relative="1" as="geometry" />
        </mxCell>
        <mxCell id="tsZCZAis8NTeMSvLRY_F-75" style="edgeStyle=orthogonalEdgeStyle;rounded=0;orthogonalLoop=1;jettySize=auto;html=1;exitX=1;exitY=0.5;exitDx=0;exitDy=0;entryX=0;entryY=0.5;entryDx=0;entryDy=0;fontSize=22;fontColor=#FF3333;" edge="1" parent="1" source="tsZCZAis8NTeMSvLRY_F-68" target="tsZCZAis8NTeMSvLRY_F-74">
          <mxGeometry relative="1" as="geometry" />
        </mxCell>
        <mxCell id="tsZCZAis8NTeMSvLRY_F-68" value="精品营训练心得" style="ellipse;whiteSpace=wrap;html=1;fontSize=22;fillColor=#f8cecc;strokeColor=#b85450;rounded=1;strokeWidth=2;shadow=1;sketch=1;fontStyle=1;" vertex="1" parent="1">
          <mxGeometry x="630" y="1380" width="160" height="70" as="geometry" />
        </mxCell>
        <mxCell id="tsZCZAis8NTeMSvLRY_F-69" value="App打卡数据" style="whiteSpace=wrap;html=1;fontSize=22;fillColor=#e1d5e7;strokeColor=#9673a6;rounded=1;strokeWidth=2;shadow=1;sketch=1;fontStyle=1;" vertex="1" parent="1">
          <mxGeometry x="860" y="1270" width="160" height="70" as="geometry" />
        </mxCell>
        <mxCell id="tsZCZAis8NTeMSvLRY_F-70" value="训练营累计学员" style="whiteSpace=wrap;html=1;fontSize=22;fillColor=#e1d5e7;strokeColor=#9673a6;rounded=1;strokeWidth=2;shadow=1;sketch=1;fontStyle=1;" vertex="1" parent="1">
          <mxGeometry x="860" y="1380" width="160" height="70" as="geometry" />
        </mxCell>
        <mxCell id="tsZCZAis8NTeMSvLRY_F-71" value="学员怎么算进营" style="text;html=1;strokeColor=none;fillColor=none;align=center;verticalAlign=middle;whiteSpace=wrap;rounded=0;shadow=1;sketch=1;fontSize=22;fontColor=#FF3333;" vertex="1" parent="1">
          <mxGeometry x="960" y="1370" width="160" height="30" as="geometry" />
        </mxCell>
        <mxCell id="tsZCZAis8NTeMSvLRY_F-74" value="培训中&lt;br&gt;已出营" style="whiteSpace=wrap;html=1;fontSize=22;fillColor=#e1d5e7;strokeColor=#9673a6;rounded=1;strokeWidth=2;shadow=1;sketch=1;fontStyle=1;" vertex="1" parent="1">
          <mxGeometry x="860" y="1490" width="160" height="70" as="geometry" />
        </mxCell>
      </root>
    </mxGraphModel>
  </diagram>
</mxfile>
